<?xml version="1.0" encoding="utf-8"?>
<!-- Generator: Adobe Illustrator 19.0.1, SVG Export Plug-In . SVG Version: 6.00 Build 0)  -->
<svg version="1.1" id="Layer_1" xmlns="http://www.w3.org/2000/svg" xmlns:xlink="http://www.w3.org/1999/xlink" x="0px" y="0px"
	 viewBox="-345 265.4 100 83.6" style="enable-background:new -345 265.4 100 83.6;" xml:space="preserve">
<g>
	<path d="M-248.8,322.7l-17.3,18.9c-1.8,1.8-4.5,3.4-6.3,1.6l-28.4-26.8c-1.5-0.2-1.6-28.4-1.6-28.4s25-0.2,26.8,1.6l28.4,25.2
		C-245.4,316.6-247,320.9-248.8,322.7z M-289.6,294c-1.9-1.9-5-1.9-6.9,0c-1.9,1.9-1.9,5,0,6.9c1.9,1.9,5,1.9,6.9,0
		C-287.7,299-287.7,295.9-289.6,294z M-262.5,318.1c-0.1-2.1-1-4-2.7-5.7c-1.5-1.5-3.1-2.3-4.8-2.4c-1.7-0.1-4,0.6-6.8,2.2l-5.4-5.4
		c1.3-0.5,2.6-0.3,3.8,0.5l3-3.9c-1.6-1.1-3.2-1.7-4.9-1.6c-1.7,0-3.3,0.7-5,2l-1.4-1.4l-2,2l1.4,1.4c-1.4,1.7-2.1,3.6-2,5.5
		c0.1,2,0.9,3.7,2.4,5.2c1.5,1.5,3.2,2.3,5,2.5c1.9,0.2,4-0.3,6.3-1.6l5.7,5.7c-0.7,0.3-1.6,0.3-2.5,0.2c-0.9-0.1-1.8-0.5-2.7-1.1
		l-3.2,4c2.1,1.5,4.1,2.3,6.1,2.3s3.8-0.7,5.6-2.1l2.5,2.5l2-2l-2.6-2.6C-263,322.3-262.3,320.2-262.5,318.1z M-272.9,316
		c1.1-0.6,2-0.8,2.8-0.8c0.8,0.1,1.5,0.4,2.1,1c0.7,0.7,1.1,1.5,1.1,2.4c0.1,0.9-0.2,1.8-0.7,2.6L-272.9,316z M-281.7,313.8
		c-0.7-0.1-1.3-0.4-1.8-0.9c-0.5-0.5-0.9-1.2-1-1.9c-0.1-0.8,0-1.5,0.4-2.2l4.7,4.7C-280.2,313.8-281,313.9-281.7,313.8z
		 M-305.8,285.4c0,0-0.2,31.1,1.5,31.3l28.8,28H-345c0,0-0.1-10.1,3.1-14.2c1.8-1.8,10.8-8,20.5-9.4c9.8-1.4,5.6-12.1,6-11.9
		c0.3,0.2-0.1-2.3-0.1-2.3s-6-6.4-5.9-12.6c0.1-6.2,0.6-10.6,0.6-10.6s-0.3-14.6,9.7-14.6l7,3.1c9,0,11,11,11,11l-0.1,2.3
		C-299.8,285.4-305.8,285.4-305.8,285.4z"/>
</g>
</svg>
